<svg width="195" height="195" viewBox="0 0 195 195" fill="none" xmlns="http://www.w3.org/2000/svg">
<path fill-rule="evenodd" clip-rule="evenodd" d="M40.9504 91.1108C31.7095 120.564 29.0083 179.966 92.1308 181.945C171.034 184.42 169.968 102.067 136.203 67.0767C135.847 71.0824 134.71 78.9524 128.739 78.3868C122.673 77.8123 123.18 67.5869 123.583 59.4766C123.676 57.6085 123.763 55.8526 123.763 54.3528C124.237 43.0426 118.716 18.9378 95.6851 13C96.6329 28.4337 94.4056 60.0785 77.9141 63.1888C68.6732 64.9317 68.3178 47.9908 71.5166 44.4564C64.7636 46.8127 49.1505 58.3736 49.1505 76.6196C49.1505 81.3053 50.8388 86.8532 52.4976 92.3039C55.4682 102.066 58.3441 111.516 51.2577 115.145C43.615 119.059 40.9504 100.418 40.9504 91.1108ZM94.5517 93.9491C100.234 93.7269 109.375 96.4114 110.591 112.776C112.112 133.232 113.861 167.828 98.9728 169.118C84.0846 170.407 79.135 162.819 79.8412 126.713C80.4062 97.8273 83.8974 94.3658 94.5517 93.9491Z" fill="url(#paint0_linear_258_2)"/>
<defs>
<linearGradient id="paint0_linear_258_2" x1="97" y1="13" x2="97" y2="182" gradientUnits="userSpaceOnUse">
<stop stop-color="#F44336"/>
<stop offset="1" stop-color="#FF7C01"/>
</linearGradient>
</defs>
</svg>
