<svg width="254" height="133" viewBox="0 0 254 133" fill="none" xmlns="http://www.w3.org/2000/svg">
<path d="M38.1569 130.582H36.9038V121.629H31.0159V130.582H29.7629V120.512H38.1569V130.582Z" fill="#1B1B1B"/>
<path d="M45.4928 130.582H44.285V120.512H45.5381V128.377L51.3354 120.512H52.6186V130.582H51.3656V122.55L45.4928 130.582Z" fill="#1B1B1B"/>
<path d="M66.81 132.438V130.582H58.7482V120.512H60.0012V129.464H65.8891V120.512H67.1422V129.464H68.0631V132.438H66.81Z" fill="#1B1B1B"/>
<path d="M81.4944 132.438V130.582H73.4325V120.512H74.6856V129.464H80.5734V120.512H81.8265V129.464H82.7474V132.438H81.4944Z" fill="#1B1B1B"/>
<path d="M96.7373 130.582H95.303L94.4123 128.347H89.4001L88.5093 130.582H87.0751L91.1211 120.512H92.6761L96.7373 130.582ZM94.0349 127.23L91.9062 121.81L89.7624 127.23H94.0349Z" fill="#1B1B1B"/>
<path d="M117.889 130.582H116.636V125.962H110.748V130.582H109.495V120.512H110.748V124.845H116.636V120.512H117.889V130.582Z" fill="#1B1B1B"/>
<path d="M132.637 130.582H131.203L130.312 128.347H125.3L124.409 130.582H122.975L127.021 120.512H128.576L132.637 130.582ZM129.935 127.23L127.806 121.81L125.662 127.23H129.935Z" fill="#1B1B1B"/>
<path d="M144.7 132.438V129.57C145.143 129.54 145.495 129.434 145.757 129.253C146.018 129.072 146.255 128.689 146.466 128.106C146.688 127.522 146.869 126.676 147.01 125.569L147.629 120.512H153.788V129.464H154.709V132.438H153.456V130.582H145.953V132.438H144.7ZM148.248 125.66C148.016 127.602 147.503 128.871 146.708 129.464H152.535V121.629H148.746L148.248 125.66Z" fill="#1B1B1B"/>
<path d="M161.332 130.582H160.079V120.512H164.125C165.101 120.512 165.871 120.804 166.435 121.387C166.998 121.971 167.28 122.691 167.28 123.546C167.28 124.402 166.993 125.121 166.42 125.705C165.856 126.289 165.091 126.581 164.125 126.581H161.332V130.582ZM163.974 125.464C164.568 125.464 165.051 125.287 165.423 124.935C165.796 124.573 165.982 124.11 165.982 123.546C165.982 122.983 165.796 122.525 165.423 122.172C165.051 121.81 164.568 121.629 163.974 121.629H161.332V125.464H163.974Z" fill="#1B1B1B"/>
<path d="M177.303 130.763C175.824 130.763 174.621 130.27 173.695 129.283C172.769 128.297 172.306 127.054 172.306 125.554C172.306 124.055 172.769 122.812 173.695 121.825C174.621 120.839 175.824 120.346 177.303 120.346C178.773 120.346 179.97 120.839 180.896 121.825C181.832 122.812 182.3 124.055 182.3 125.554C182.3 127.054 181.832 128.297 180.896 129.283C179.97 130.27 178.773 130.763 177.303 130.763ZM177.303 129.646C178.41 129.646 179.301 129.263 179.976 128.498C180.66 127.723 181.002 126.742 181.002 125.554C181.002 124.356 180.66 123.375 179.976 122.61C179.301 121.845 178.41 121.463 177.303 121.463C176.186 121.463 175.29 121.845 174.616 122.61C173.942 123.375 173.605 124.356 173.605 125.554C173.605 126.742 173.942 127.723 174.616 128.498C175.29 129.263 176.186 129.646 177.303 129.646Z" fill="#1B1B1B"/>
<path d="M192.622 130.582H188.032V120.512H192.516C193.381 120.512 194.066 120.748 194.569 121.221C195.082 121.694 195.339 122.313 195.339 123.078C195.339 123.682 195.168 124.195 194.826 124.618C194.484 125.031 194.066 125.287 193.573 125.388C194.106 125.469 194.564 125.75 194.947 126.234C195.339 126.717 195.535 127.26 195.535 127.864C195.535 128.679 195.274 129.339 194.75 129.842C194.237 130.335 193.527 130.582 192.622 130.582ZM192.305 124.875C192.858 124.875 193.286 124.724 193.588 124.422C193.89 124.12 194.041 123.732 194.041 123.259C194.041 122.786 193.885 122.399 193.573 122.097C193.271 121.785 192.848 121.629 192.305 121.629H189.285V124.875H192.305ZM192.365 129.464C192.949 129.464 193.407 129.308 193.739 128.996C194.071 128.684 194.237 128.262 194.237 127.728C194.237 127.235 194.071 126.822 193.739 126.49C193.417 126.158 192.959 125.992 192.365 125.992H189.285V129.464H192.365Z" fill="#1B1B1B"/>
<path d="M209.921 130.582H208.487L207.597 128.347H202.584L201.694 130.582H200.259L204.305 120.512H205.86L209.921 130.582ZM207.219 127.23L205.09 121.81L202.947 127.23H207.219Z" fill="#1B1B1B"/>
<path d="M223.482 130.582H221.972L218.756 126.294L215.541 130.582H214.016L217.941 125.418L214.242 120.512H215.767L218.756 124.543L221.731 120.512H223.255L219.572 125.403L223.482 130.582Z" fill="#1B1B1B"/>
<path d="M134.872 54.5265C138.769 69.5456 136.483 86.2892 125.002 96.286L123.365 103.212H154.702L159.072 67.412H160.467L164.744 103.212H179.009L187.388 67.7625L181.575 41.8406H137.871L134.872 54.5265Z" fill="#1B1B1B"/>
<path d="M213.365 103.212H182.028L196.534 41.8406H240.238L254 103.212H223.407L221.827 90.0079H214.945L213.365 103.212ZM217.735 67.412L215.782 82.8479H220.99L219.13 67.412H217.735Z" fill="#1B1B1B"/>
<path fill-rule="evenodd" clip-rule="evenodd" d="M62.961 47.6638C57.3535 65.6366 55.7144 101.884 94.018 103.092C141.897 104.602 141.25 54.3497 120.762 32.998C120.546 35.4423 119.856 40.2446 116.232 39.8996C112.551 39.549 112.859 33.3093 113.104 28.3604C113.16 27.2205 113.213 26.149 113.213 25.2338C113.501 18.3322 110.15 3.62331 96.1748 0C96.7499 9.41773 95.3983 28.7277 85.3911 30.6256C79.7836 31.6891 79.5679 21.3517 81.509 19.1949C77.4112 20.6327 67.9369 27.6873 67.9369 38.8212C67.9369 41.6804 68.9614 45.0658 69.968 48.3918C71.7706 54.3486 73.5158 60.1152 69.2156 62.3296C64.5779 64.7177 62.961 53.3432 62.961 47.6638ZM95.487 49.3958C98.9351 49.2602 104.482 50.8983 105.22 60.8842C106.143 73.3666 107.204 94.4772 98.1698 95.2642C89.1354 96.0512 86.132 91.4208 86.5605 69.3883C86.9033 51.7623 89.0218 49.6501 95.487 49.3958Z" fill="url(#paint0_linear_241_6387)"/>
<path d="M61.6185 88.0926C60.5526 91.9211 58.2385 95.0952 54.6763 97.6148C49.5931 101.148 41.5962 102.915 30.6857 102.915C24.7345 102.915 19.1553 102.419 13.948 101.427C8.74078 100.435 4.09143 98.7616 0 96.4059L6.60208 75.6698C8.27584 76.8477 10.0426 77.8395 11.9023 78.6454C13.5141 79.3893 15.3738 80.0712 17.4816 80.6911C19.5893 81.3111 21.8209 81.621 24.1766 81.621C25.2925 81.621 26.3773 81.528 27.4312 81.3421C28.547 81.0941 29.5079 80.7531 30.3138 80.3192C31.1816 79.8233 31.8635 79.2343 32.3595 78.5524C32.8554 77.8086 33.1034 76.9097 33.1034 75.8558C33.0414 74.1821 32.0185 72.7873 30.0348 71.6714C28.1131 70.4936 25.8504 69.9356 23.2467 69.9976H11.9023L11.8093 64.3254L23.6187 64.4184C25.5404 64.4184 27.1212 64.1085 28.361 63.4886C29.6009 62.8066 30.2208 61.9388 30.2208 60.8849C30.2208 59.8931 29.7868 59.1802 28.919 58.7462C28.1131 58.3123 27.0592 58.0953 25.7574 58.0953C24.5176 58.0333 23.0918 58.1573 21.48 58.4673C19.9302 58.7772 18.4114 59.1492 16.9236 59.5831C15.4358 60.017 14.072 60.513 12.8322 61.0709C11.6544 61.5668 10.7555 62.0318 10.1356 62.4657L3.90545 45.4491C7.43896 43.4034 11.5614 41.9466 16.2727 41.0787C20.9841 40.1488 25.9434 39.6839 31.1506 39.6839C40.0154 39.6839 46.6485 40.9237 51.0499 43.4034C55.4512 45.821 57.7139 49.1066 57.8379 53.26C57.9619 57.0415 56.2571 60.079 52.7236 62.3727C49.2521 64.6044 43.7659 65.6583 36.2649 65.5343L36.1719 66.7431C37.5977 66.5571 39.2405 66.4641 41.1003 66.4641C42.96 66.4641 44.8507 66.6501 46.7725 67.0221C48.7562 67.332 50.6779 67.8589 52.5376 68.6028C54.2433 69.2851 55.7665 70.176 57.1071 71.2754C57.577 77.2095 59.0343 82.9456 61.6185 88.0926Z" fill="#1B1B1B"/>
<defs>
<linearGradient id="paint0_linear_241_6387" x1="96.9727" y1="0" x2="96.9727" y2="103.125" gradientUnits="userSpaceOnUse">
<stop stop-color="#F44336"/>
<stop offset="1" stop-color="#FF7C01"/>
</linearGradient>
</defs>
</svg>
