<?xml version="1.0" encoding="UTF-8"?><!DOCTYPE svg PUBLIC "-//W3C//DTD SVG 1.1//EN" "http://www.w3.org/Graphics/SVG/1.1/DTD/svg11.dtd"><svg xmlns="http://www.w3.org/2000/svg" xmlns:xlink="http://www.w3.org/1999/xlink"><defs>
        <clipPath id="a">
            <path d="M0 0h24v24H0z"/>
        </clipPath>
    
        <clipPath id="a">
            <path transform="translate(.5 .5)" d="M0 0h25v25H0z"/>
        </clipPath>
    </defs><symbol id="icon-back" viewBox="0 0 21 20">
    <path d="M12.33 8.817H7.205l2.312-1.85a.833.833 0 0 0-1.041-1.3L4.309 9a.838.838 0 0 0 0 1.3l4.167 3.334a.833.833 0 0 0 1.041-1.3l-2.311-1.85h5.124a2.503 2.503 0 0 1 2.5 2.5v1.666a.833.833 0 0 0 1.666 0v-1.666a4.171 4.171 0 0 0-4.166-4.167z"/>
</symbol><symbol id="icon-close" viewBox="0 0 25 25">
    <path d="M19.668 5.344a1.133 1.133 0 0 0-1.604 0L12.5 10.896 6.936 5.332a1.134 1.134 0 0 0-1.604 1.604l5.564 5.564-5.564 5.564a1.135 1.135 0 0 0 1.604 1.604l5.564-5.564 5.564 5.564a1.137 1.137 0 0 0 1.604 0 1.137 1.137 0 0 0 0-1.604L14.104 12.5l5.564-5.564a1.14 1.14 0 0 0 0-1.592z"/>
</symbol><symbol id="icon-coffee" viewBox="0 0 26 26">
    <path d="M20.174 5.643h-.062l.02-.21v-.014c.061-.851-.214-1.694-.735-2.253-.4-.43-.918-.666-1.458-.666l-9.827.004c-.54 0-1.059.237-1.459.667-.521.56-.797 1.402-.737 2.253l.002.013.019.21A1.557 1.557 0 0 0 4.5 7.198v.953c0 .858.698 1.556 1.555 1.556h.256l1.311 14.209c.031.33.309.584.641.584l9.515-.004c.332 0 .61-.253.64-.584l1.317-14.205h.439c.858 0 1.555-.698 1.555-1.556v-.953c0-.858-.697-1.556-1.555-1.556zM7.594 4.048c.11-.118.288-.258.518-.258l9.827-.004c.23 0 .408.14.517.257.281.302.428.779.394 1.278l-.03.322H7.228L7.2 5.325c-.033-.499.114-.976.395-1.278zm10.047 14.307h-9.24l-.51-5.537h10.264l-.514 5.537zM8.85 23.213l-.33-3.572h9.002l-.33 3.569-8.342.003zm9.424-11.682H7.772l-.169-1.824h10.84l-.169 1.824zm2.169-3.38a.269.269 0 0 1-.27.27H6.057a.27.27 0 0 1-.27-.27v-.953a.27.27 0 0 1 .27-.269h14.118a.27.27 0 0 1 .269.269v.953z"/>
</symbol><symbol id="icon-feed" viewBox="0 0 26 26">
    <path d="M16.148 11.503a.703.703 0 0 0-.703-.703H7.711a.703.703 0 0 0 0 1.406h7.734a.702.702 0 0 0 .703-.703zM7.71 14.351a.703.703 0 1 0 0 1.406h4.101a.703.703 0 0 0 0-1.406h-4.1z"/>
    <path d="M20.781 11.542a.703.703 0 0 0-.703.703v5.687a1.932 1.932 0 0 1-1.93 1.93h-4.703a.7.7 0 0 0-.422.141l-4.061 3.054a.22.22 0 0 1-.249.019.224.224 0 0 1-.127-.213l.078-2.273a.704.704 0 0 0-.702-.727H4.695a1.932 1.932 0 0 1-1.93-1.93V8.636a1.935 1.935 0 0 1 1.93-1.937h8.664a.703.703 0 0 0 0-1.406H4.695A3.344 3.344 0 0 0 1.36 8.637v9.296a3.34 3.34 0 0 0 3.336 3.337h2.539l-.054 1.548a1.63 1.63 0 0 0 .885 1.507c.234.123.495.187.76.188.345 0 .688-.112.98-.33l3.875-2.913h4.468a3.34 3.34 0 0 0 3.336-3.337v-5.687a.703.703 0 0 0-.703-.704z"/>
    <path d="M24.582 4.845a1.175 1.175 0 0 0-.838-.782l-1.797-.447-.981-1.57c-.436-.7-1.572-.698-2.006 0l-.981 1.57-1.797.447a1.17 1.17 0 0 0-.838.782c-.127.39-.046.811.218 1.126l1.191 1.417-.13 1.847a1.176 1.176 0 0 0 .485 1.04 1.175 1.175 0 0 0 1.138.14l1.717-.695 1.717.694c.38.155.805.102 1.138-.139.332-.241.513-.63.485-1.04l-.13-1.847 1.191-1.418c.263-.314.345-.735.218-1.125zm-2.669 1.857a.703.703 0 0 0-.162.502l.125 1.773-1.649-.666a.7.7 0 0 0-.526 0l-1.648.666.124-1.773a.711.711 0 0 0-.162-.502L16.872 5.34l1.725-.43a.703.703 0 0 0 .426-.31l.942-1.507.942 1.507c.097.154.25.265.426.31l1.725.43-1.145 1.36z"/>
</symbol><symbol id="icon-geo" viewBox="0 0 17 18">
    <path fill-rule="evenodd" clip-rule="evenodd" d="M7.976 15.624c.03.238.11.423.342.516h.179a.478.478 0 0 0 .35-.443c.032-.321.15-.613.313-.889.318-.541.756-.98 1.213-1.403.307-.285.63-.552.953-.82.257-.212.514-.425.763-.647 1.552-1.379 2.223-3.102 1.965-5.168a5.364 5.364 0 0 0-1.534-3.16c-1.347-1.373-2.99-1.94-4.898-1.694a5.356 5.356 0 0 0-3.16 1.544c-1.444 1.437-1.99 3.18-1.638 5.188.216 1.216.803 2.247 1.706 3.094.305.287.627.553.95.819.209.173.418.345.624.525.5.436.987.887 1.38 1.428.24.336.44.693.492 1.11zm-1.554-8.06A2.002 2.002 0 0 0 8.41 9.57a2.002 2.002 0 0 0 .008-4.003 2.004 2.004 0 0 0-1.997 1.998z"/>
</symbol><symbol id="icon-home" viewBox="0 0 25 25">
    <path fill-rule="evenodd" clip-rule="evenodd" d="M4.409 11.347l-.25.211a.706.706 0 0 1-1.126-.324.705.705 0 0 1 .217-.752L11.5 3.5a2.111 2.111 0 0 1 2.729 0l8.25 6.98a.702.702 0 0 1 .093 1.002.705.705 0 0 1-1.003.074l-.25-.21v9.54A2.115 2.115 0 0 1 19.205 23H6.523a2.114 2.114 0 0 1-2.114-2.114v-9.54zm15.5-1.193l-6.59-5.578a.705.705 0 0 0-.91 0l-6.59 5.578v10.732a.707.707 0 0 0 .704.706h12.682a.707.707 0 0 0 .705-.706V10.154z"/>
</symbol><symbol id="icon-info" viewBox="0 0 25 25">
    <path d="M14.695 9.766v10.156a2.344 2.344 0 1 1-4.687 0v-7.813h-.14a1.562 1.562 0 0 1-1.563-1.562v-.781a1.563 1.563 0 0 1 1.562-1.563h3.266a1.563 1.563 0 0 1 1.562 1.563zm-2.343-2.344a2.344 2.344 0 1 0 0-4.688 2.344 2.344 0 0 0 0 4.688z"/>
</symbol><symbol id="icon-inst" viewBox="0 0 18 18">
    <path d="M9.734 1.86c.803.002 1.211.006 1.563.016l.138.005.509.022c.76.036 1.278.155 1.733.332.47.181.868.427 1.265.823.363.357.644.789.823 1.265.176.455.296.973.332 1.734.009.19.016.347.021.508l.005.139c.01.35.015.759.016 1.562v1.468c.003.52-.003 1.041-.015 1.562l-.005.139-.021.508c-.036.76-.157 1.278-.333 1.733-.179.477-.46.909-.823 1.266a3.51 3.51 0 0 1-1.265.823c-.455.176-.973.296-1.733.332-.17.008-.339.015-.509.021l-.138.005c-.352.01-.76.014-1.563.016H8.267a56.16 56.16 0 0 1-1.563-.016l-.139-.004c-.17-.006-.339-.014-.508-.022-.76-.036-1.278-.156-1.733-.332a3.49 3.49 0 0 1-1.265-.823 3.502 3.502 0 0 1-.824-1.266c-.176-.454-.296-.973-.332-1.733l-.021-.508-.004-.139a58.058 58.058 0 0 1-.018-1.562V8.266c-.002-.52.004-1.042.016-1.562l.005-.139.021-.508c.036-.76.156-1.278.332-1.734.18-.477.461-.909.826-1.265a3.496 3.496 0 0 1 1.264-.823c.455-.177.973-.296 1.733-.332l.508-.022.139-.004a56.42 56.42 0 0 1 1.562-.016l1.468-.001zM9 5.43a3.57 3.57 0 1 0 0 7.14 3.57 3.57 0 0 0 0-7.14zm0 1.428a2.142 2.142 0 1 1 0 4.284 2.142 2.142 0 0 1 0-4.284m3.75-2.5a.892.892 0 1 0 0 1.785.892.892 0 0 0 0-1.784z"/>
</symbol><symbol id="icon-lemonade" viewBox="0 0 512 512">
    <path fill-rule="evenodd" clip-rule="evenodd" d="M153.203 233.906C91.276 230.873 42 179.703 42 117.025 42 52.393 94.393 0 159.024 0c59.547 0 108.705 44.475 116.071 102.018h59.423l35.537-91.637c2.997-7.729 11.69-11.563 19.418-8.567 7.728 2.998 11.563 11.692 8.566 19.418l-31.328 80.786h88.482a15.008 15.008 0 0 1 14.961 16.189l-30.015 379.967c-.617 7.806-7.131 13.826-14.961 13.826H189.039c-7.83 0-14.344-6.02-14.961-13.826l-20.875-264.268zM73.305 102.018h49.488L87.804 67.029a86.524 86.524 0 0 0-14.5 34.989zm35.723-56.213l34.989 34.988V31.305a86.532 86.532 0 0 0-34.989 14.5zm65.004-14.5v49.488l34.988-34.988a86.534 86.534 0 0 0-34.988-14.5zm56.212 35.724l-34.988 34.989h49.488a86.526 86.526 0 0 0-14.5-34.989zm-107.451 65.002L87.804 167.02a86.526 86.526 0 0 1-14.5-34.989h49.489zm-13.765 56.213l37.598-37.598 4.187 53.004a86.511 86.511 0 0 1-41.785-15.406zm213.85-56.211H175.264l5.688 72h114.005l27.921-72zm4.272 72l27.922-72h83.881l-5.687 72H327.15zm-43.833 30.016l-49.68 128.109c-2.997 7.729.838 16.422 8.566 19.418 7.728 2.998 16.422-.838 19.418-8.566l53.889-138.961h115.385l-14.844 187.906H198.166l-14.843-187.906h99.994zm-82.78 217.922l2.371 30.013h208.401l2.371-30.013H200.537z"/>
</symbol><symbol id="icon-phone" viewBox="0 0 17 18">
    <path d="M11.727 10.08l-.322.321s-.767.762-2.86-1.319C6.45 7.002 7.219 6.24 7.219 6.24l.202-.203c.501-.497.548-1.296.111-1.88L6.64 2.964c-.541-.722-1.586-.818-2.206-.202L3.322 3.867c-.307.306-.512.702-.487 1.14.063 1.125.572 3.543 3.408 6.363 3.009 2.99 5.831 3.11 6.985 3.002.366-.034.683-.22.939-.475l1.005-1c.68-.675.49-1.833-.38-2.305l-1.354-.736a1.445 1.445 0 0 0-1.71.224z"/>
</symbol><symbol id="icon-star" viewBox="0 0 24 24">
    <g clip-path="url(#a)">
        <path d="M10.92 2.869a1.25 1.25 0 0 1 2.16 0l2.795 4.798 5.428 1.176a1.25 1.25 0 0 1 .667 2.054l-3.7 4.14.56 5.526a1.25 1.25 0 0 1-1.748 1.27L12 19.593l-5.082 2.24a1.25 1.25 0 0 1-1.748-1.27l.56-5.525-3.7-4.14a1.25 1.25 0 0 1 .667-2.055l5.428-1.176 2.795-4.798z"/>
    </g>
    
</symbol><symbol id="icon-tea" viewBox="0 0 26 26">
    <g clip-path="url(#a)">
        <path fill-rule="evenodd" clip-rule="evenodd" d="M15.187 6.01v-.5a2.01 2.01 0 1 0-4.021 0v.5h-.442a2.01 2.01 0 0 0-1.907 1.376l-.473 1.425c-.525.29-1.017.62-1.47.981L2.933 7.404a.756.756 0 0 0-1.02.227L.626 9.561a.756.756 0 0 0 .146 1l.005.004.023.02.094.082a12.687 12.687 0 0 1 1.415 1.498c.797 1 1.48 2.208 1.48 3.336 0 2.115 1.164 3.687 2.905 4.692 1.715.99 4.017 1.458 6.482 1.458 2.464 0 4.766-.468 6.48-1.458 1.048-.604 1.886-1.413 2.389-2.422a5.163 5.163 0 0 0 1.591-1.028c.967-.915 1.863-2.453 1.863-4.935 0-1.553-1.18-2.89-2.554-3.37-.71-.25-1.518-.29-2.297.01-.553.211-1.056.58-1.483 1.106-.365-.27-.752-.518-1.157-.743l-.473-1.425A2.01 2.01 0 0 0 15.63 6.01h-.442zm-2.01-.999a.5.5 0 0 0-.5.5v.499h.999v-.5a.5.5 0 0 0-.5-.499zM16.34 8.58l-.238-.716a.498.498 0 0 0-.473-.342h-4.905a.498.498 0 0 0-.473.342l-.237.716h6.326zm-7.186 1.51a8.948 8.948 0 0 0-1.702 1.193.756.756 0 0 1-.907.077L2.768 9.072l-.523.786.051.05c.325.315.76.767 1.195 1.314.847 1.062 1.81 2.615 1.81 4.279 0 1.46.767 2.585 2.15 3.383 1.41.814 3.423 1.256 5.726 1.256s4.316-.442 5.725-1.256c1.383-.798 2.15-1.923 2.15-3.383 0-2.012-1.468-4.118-3.853-5.41H9.154zm11.159.45c1.383 1.39 2.25 3.13 2.25 4.96 0 .06 0 .12-.002.18l.038-.035c.659-.624 1.39-1.763 1.39-3.837 0-.787-.65-1.631-1.542-1.944-.423-.148-.858-.158-1.257-.005-.287.11-.591.318-.877.681z"/>
    </g>
    
</symbol></svg>